<svg xmlns="http://www.w3.org/2000/svg" xmlns:xlink="http://www.w3.org/1999/xlink" id="processonSvg1000" viewBox="237.59999084472656 35.59999084472656 433.0 495.00000762939453" width="433.0" height="495.00000762939453"><defs id="ProcessOnDefs1001"><marker id="ProcessOnMarker1031" markerUnits="userSpaceOnUse" orient="auto" markerWidth="16.23606797749979" markerHeight="10.550836550532098" viewBox="-1.0 -1.3763819204711736 16.23606797749979 10.550836550532098" refX="-1.0" refY="3.8990363547948754"><path id="ProcessOnPath1032" d="M12.0 3.8990363547948754L0.0 7.798072709589751V0.0Z" stroke="#323232" stroke-width="2.0" fill="#323232" transform="matrix(1.0,0.0,0.0,1.0,0.0,0.0)"/></marker><marker id="ProcessOnMarker1035" markerUnits="userSpaceOnUse" orient="auto" markerWidth="16.23606797749979" markerHeight="10.550836550532098" viewBox="-1.0 -1.3763819204711736 16.23606797749979 10.550836550532098" refX="-1.0" refY="3.8990363547948754"><path id="ProcessOnPath1036" d="M12.0 3.8990363547948754L0.0 7.798072709589751V0.0Z" stroke="#323232" stroke-width="2.0" fill="#323232" transform="matrix(1.0,0.0,0.0,1.0,0.0,0.0)"/></marker><marker id="ProcessOnMarker1051" markerUnits="userSpaceOnUse" orient="auto" markerWidth="16.23606797749979" markerHeight="10.550836550532098" viewBox="-1.0 -1.3763819204711736 16.23606797749979 10.550836550532098" refX="-1.0" refY="3.8990363547948754"><path id="ProcessOnPath1052" d="M12.0 3.8990363547948754L0.0 7.798072709589751V0.0Z" stroke="#323232" stroke-width="2.0" fill="#323232" transform="matrix(1.0,0.0,0.0,1.0,0.0,0.0)"/></marker><marker id="ProcessOnMarker1055" markerUnits="userSpaceOnUse" orient="auto" markerWidth="16.23606797749979" markerHeight="10.550836550532098" viewBox="-1.0 -1.3763819204711736 16.23606797749979 10.550836550532098" refX="-1.0" refY="3.8990363547948754"><path id="ProcessOnPath1056" d="M12.0 3.8990363547948754L0.0 7.798072709589751V0.0Z" stroke="#323232" stroke-width="2.0" fill="#323232" transform="matrix(1.0,0.0,0.0,1.0,0.0,0.0)"/></marker><marker id="ProcessOnMarker1059" markerUnits="userSpaceOnUse" orient="auto" markerWidth="16.23606797749979" markerHeight="10.550836550532098" viewBox="-1.0 -1.3763819204711736 16.23606797749979 10.550836550532098" refX="-1.0" refY="3.8990363547948754"><path id="ProcessOnPath1060" d="M12.0 3.8990363547948754L0.0 7.798072709589751V0.0Z" stroke="#323232" stroke-width="2.0" fill="#323232" transform="matrix(1.0,0.0,0.0,1.0,0.0,0.0)"/></marker><marker id="ProcessOnMarker1072" markerUnits="userSpaceOnUse" orient="auto" markerWidth="16.23606797749979" markerHeight="10.550836550532098" viewBox="-1.0 -1.3763819204711736 16.23606797749979 10.550836550532098" refX="-1.0" refY="3.8990363547948754"><path id="ProcessOnPath1073" d="M12.0 3.8990363547948754L0.0 7.798072709589751V0.0Z" stroke="#323232" stroke-width="2.0" fill="#323232" transform="matrix(1.0,0.0,0.0,1.0,0.0,0.0)"/></marker><marker id="ProcessOnMarker1084" markerUnits="userSpaceOnUse" orient="auto" markerWidth="16.23606797749979" markerHeight="10.550836550532098" viewBox="-1.0 -1.3763819204711736 16.23606797749979 10.550836550532098" refX="-1.0" refY="3.8990363547948754"><path id="ProcessOnPath1085" d="M12.0 3.8990363547948754L0.0 7.798072709589751V0.0Z" stroke="#323232" stroke-width="2.0" fill="#323232" transform="matrix(1.0,0.0,0.0,1.0,0.0,0.0)"/></marker><marker id="ProcessOnMarker1088" markerUnits="userSpaceOnUse" orient="auto" markerWidth="16.23606797749979" markerHeight="10.550836550532098" viewBox="-1.0 -1.3763819204711736 16.23606797749979 10.550836550532098" refX="-1.0" refY="3.8990363547948754"><path id="ProcessOnPath1089" d="M12.0 3.8990363547948754L0.0 7.798072709589751V0.0Z" stroke="#323232" stroke-width="2.0" fill="#323232" transform="matrix(1.0,0.0,0.0,1.0,0.0,0.0)"/></marker><marker id="ProcessOnMarker1092" markerUnits="userSpaceOnUse" orient="auto" markerWidth="16.23606797749979" markerHeight="10.550836550532098" viewBox="-1.0 -1.3763819204711736 16.23606797749979 10.550836550532098" refX="-1.0" refY="3.8990363547948754"><path id="ProcessOnPath1093" d="M12.0 3.8990363547948754L0.0 7.798072709589751V0.0Z" stroke="#323232" stroke-width="2.0" fill="#323232" transform="matrix(1.0,0.0,0.0,1.0,0.0,0.0)"/></marker><marker id="ProcessOnMarker1096" markerUnits="userSpaceOnUse" orient="auto" markerWidth="16.23606797749979" markerHeight="10.550836550532098" viewBox="-1.0 -1.3763819204711736 16.23606797749979 10.550836550532098" refX="-1.0" refY="3.8990363547948754"><path id="ProcessOnPath1097" d="M12.0 3.8990363547948754L0.0 7.798072709589751V0.0Z" stroke="#323232" stroke-width="2.0" fill="#323232" transform="matrix(1.0,0.0,0.0,1.0,0.0,0.0)"/></marker><marker id="ProcessOnMarker1100" markerUnits="userSpaceOnUse" orient="auto" markerWidth="16.23606797749979" markerHeight="10.550836550532098" viewBox="-1.0 -1.3763819204711736 16.23606797749979 10.550836550532098" refX="-1.0" refY="3.8990363547948754"><path id="ProcessOnPath1101" d="M12.0 3.8990363547948754L0.0 7.798072709589751V0.0Z" stroke="#323232" stroke-width="2.0" fill="#323232" transform="matrix(1.0,0.0,0.0,1.0,0.0,0.0)"/></marker><marker id="ProcessOnMarker1104" markerUnits="userSpaceOnUse" orient="auto" markerWidth="16.23606797749979" markerHeight="10.550836550532098" viewBox="-1.0 -1.3763819204711736 16.23606797749979 10.550836550532098" refX="-1.0" refY="3.8990363547948754"><path id="ProcessOnPath1105" d="M12.0 3.8990363547948754L0.0 7.798072709589751V0.0Z" stroke="#323232" stroke-width="2.0" fill="#323232" transform="matrix(1.0,0.0,0.0,1.0,0.0,0.0)"/></marker></defs><g id="ProcessOnG1002"><path id="ProcessOnPath1003" d="M237.59999084472656 35.59999084472656H670.5999908447266V530.5999984741211H237.59999084472656V35.59999084472656Z" fill="none"/><g id="ProcessOnG1004"><g id="ProcessOnG1005" transform="matrix(1.0,0.0,0.0,1.0,257.59999084472656,490.5999984741211)" opacity="1.0"><path id="ProcessOnPath1006" d="M0.0 0.0L112.0 0.0L112.0 20.0L0.0 20.0Z" stroke="#323232" stroke-width="2.0" stroke-dasharray="none" opacity="1.0" fill="#ffffff"/><g id="ProcessOnG1007" transform="matrix(1.0,0.0,0.0,1.0,10.0,1.875)"><text id="ProcessOnText1008" fill="#000000" font-size="13" x="45.0" y="13.325" font-family="微软雅黑" font-weight="normal" font-style="normal" text-decoration="none" family="微软雅黑" text-anchor="middle" size="13">Question</text></g></g><g id="ProcessOnG1009" transform="matrix(1.0,0.0,0.0,1.0,475.59999084472656,490.5999984741211)" opacity="1.0"><path id="ProcessOnPath1010" d="M0.0 0.0L112.0 0.0L112.0 20.0L0.0 20.0Z" stroke="#323232" stroke-width="2.0" stroke-dasharray="none" opacity="1.0" fill="#ffffff"/><g id="ProcessOnG1011" transform="matrix(1.0,0.0,0.0,1.0,10.0,1.875)"><text id="ProcessOnText1012" fill="#000000" font-size="13" x="45.0" y="13.325" font-family="微软雅黑" font-weight="normal" font-style="normal" text-decoration="none" family="微软雅黑" text-anchor="middle" size="13">Answer</text></g></g><g id="ProcessOnG1013" transform="matrix(1.0,0.0,0.0,1.0,354.59999084472656,428.5999984741211)" opacity="1.0"><path id="ProcessOnPath1014" d="M0.0 0.0L150.0 0.0L150.0 24.0L0.0 24.0Z" stroke="#323232" stroke-width="2.0" stroke-dasharray="none" opacity="1.0" fill="#ffffff"/><g id="ProcessOnG1015" transform="matrix(1.0,0.0,0.0,1.0,10.0,3.875)"><text id="ProcessOnText1016" fill="#000000" font-size="13" x="64.0" y="13.325" font-family="微软雅黑" font-weight="normal" font-style="normal" text-decoration="none" family="微软雅黑" text-anchor="middle" size="13">Embedding layer</text></g></g><g id="ProcessOnG1017" transform="matrix(1.0,0.0,0.0,1.0,257.59999084472656,310.5999984741211)" opacity="1.0"><path id="ProcessOnPath1018" d="M0.0 0.0L112.0 0.0L112.0 20.0L0.0 20.0Z" stroke="#323232" stroke-width="2.0" stroke-dasharray="none" opacity="1.0" fill="#ffffff"/><g id="ProcessOnG1019" transform="matrix(1.0,0.0,0.0,1.0,10.0,1.875)"><text id="ProcessOnText1020" fill="#000000" font-size="13" x="45.0" y="13.325" font-family="微软雅黑" font-weight="normal" font-style="normal" text-decoration="none" family="微软雅黑" text-anchor="middle" size="13">LSTM</text></g></g><g id="ProcessOnG1021" transform="matrix(1.0,0.0,0.0,1.0,475.59999084472656,313.5999984741211)" opacity="1.0"><path id="ProcessOnPath1022" d="M0.0 0.0L112.0 0.0L112.0 20.0L0.0 20.0Z" stroke="#323232" stroke-width="2.0" stroke-dasharray="none" opacity="1.0" fill="#ffffff"/><g id="ProcessOnG1023" transform="matrix(1.0,0.0,0.0,1.0,10.0,1.875)"><text id="ProcessOnText1024" fill="#000000" font-size="13" x="45.0" y="13.325" font-family="微软雅黑" font-weight="normal" font-style="normal" text-decoration="none" family="微软雅黑" text-anchor="middle" size="13">LSTM</text></g></g><g id="ProcessOnG1025" transform="matrix(1.0,0.0,0.0,1.0,316.59999084472656,246.59999084472656)" opacity="1.0"><path id="ProcessOnPath1026" d="M0.0 0.0L210.0 0.0L210.0 20.0L0.0 20.0Z" stroke="#323232" stroke-width="2.0" stroke-dasharray="none" opacity="1.0" fill="#ffffff"/><g id="ProcessOnG1027" transform="matrix(1.0,0.0,0.0,1.0,10.0,1.875)"><text id="ProcessOnText1028" fill="#000000" font-size="13" x="94.0" y="13.325" font-family="微软雅黑" font-weight="normal" font-style="normal" text-decoration="none" family="微软雅黑" text-anchor="middle" size="13">Concatenate layer</text></g></g><g id="ProcessOnG1029"><path id="ProcessOnPath1030" d="M313.59999084472656 310.5999984741211L313.59999084472656 288.5999946594238L421.59999084472656 288.5999946594238L421.59999084472656 281.83605882222633" stroke="#323232" stroke-width="2.0" stroke-dasharray="none" fill="none" marker-end="url(#ProcessOnMarker1031)"/></g><g id="ProcessOnG1033"><path id="ProcessOnPath1034" d="M531.5999908447266 313.5999984741211L531.5999908447266 290.0999946594238L421.59999084472656 290.0999946594238L421.59999084472656 281.83605882222633" stroke="#323232" stroke-width="2.0" stroke-dasharray="none" fill="none" marker-end="url(#ProcessOnMarker1035)"/></g><g id="ProcessOnG1037" transform="matrix(1.0,0.0,0.0,1.0,316.59999084472656,206.59999084472656)" opacity="1.0"><path id="ProcessOnPath1038" d="M0.0 0.0L210.0 0.0L210.0 20.0L0.0 20.0Z" stroke="#323232" stroke-width="2.0" stroke-dasharray="none" opacity="1.0" fill="#ffffff"/><g id="ProcessOnG1039" transform="matrix(1.0,0.0,0.0,1.0,10.0,1.875)"><text id="ProcessOnText1040" fill="#000000" font-size="13" x="94.0" y="13.325" font-family="微软雅黑" font-weight="normal" font-style="normal" text-decoration="none" family="微软雅黑" text-anchor="middle" size="13">Dense layer (ReLU)</text></g></g><g id="ProcessOnG1041" transform="matrix(1.0,0.0,0.0,1.0,316.59999084472656,163.59999084472656)" opacity="1.0"><path id="ProcessOnPath1042" d="M0.0 0.0L210.0 0.0L210.0 20.0L0.0 20.0Z" stroke="#323232" stroke-width="2.0" stroke-dasharray="none" opacity="1.0" fill="#ffffff"/><g id="ProcessOnG1043" transform="matrix(1.0,0.0,0.0,1.0,10.0,1.875)"><text id="ProcessOnText1044" fill="#000000" font-size="13" x="94.0" y="13.325" font-family="微软雅黑" font-weight="normal" font-style="normal" text-decoration="none" family="微软雅黑" text-anchor="middle" size="13">Dropout</text></g></g><g id="ProcessOnG1045" transform="matrix(1.0,0.0,0.0,1.0,316.59999084472656,119.59999084472656)" opacity="1.0"><path id="ProcessOnPath1046" d="M0.0 0.0L210.0 0.0L210.0 20.0L0.0 20.0Z" stroke="#323232" stroke-width="2.0" stroke-dasharray="none" opacity="1.0" fill="#ffffff"/><g id="ProcessOnG1047" transform="matrix(1.0,0.0,0.0,1.0,10.0,1.875)"><text id="ProcessOnText1048" fill="#000000" font-size="13" x="94.0" y="13.325" font-family="微软雅黑" font-weight="normal" font-style="normal" text-decoration="none" family="微软雅黑" text-anchor="middle" size="13">Batch normalization</text></g></g><g id="ProcessOnG1049"><path id="ProcessOnPath1050" d="M421.59999084472656 206.59999084472656L421.59999084472656 195.09999084472656L421.59999084472656 195.09999084472656L421.59999084472656 194.09999084472656" stroke="#323232" stroke-width="2.0" stroke-dasharray="none" fill="none" marker-end="url(#ProcessOnMarker1051)"/></g><g id="ProcessOnG1053"><path id="ProcessOnPath1054" d="M421.59999084472656 163.59999084472656L421.59999084472656 151.59999084472656L421.59999084472656 151.59999084472656L421.59999084472656 150.59999084472656" stroke="#323232" stroke-width="2.0" stroke-dasharray="none" fill="none" marker-end="url(#ProcessOnMarker1055)"/></g><g id="ProcessOnG1057"><path id="ProcessOnPath1058" d="M421.59999084472656 246.59999084472656L421.59999084472656 236.59999084472656L421.59999084472656 236.59999084472656L421.59999084472656 235.59999084472656" stroke="#323232" stroke-width="2.0" stroke-dasharray="none" fill="none" marker-end="url(#ProcessOnMarker1059)"/></g><g id="ProcessOnG1061" transform="matrix(1.0,0.0,0.0,1.0,542.5999908447266,124.5999984741211)" opacity="1.0"><path id="ProcessOnPath1062" d="M0.0 101.99999237060547Q9.0 101.99999237060547 9.0 92.99999237060547L9.0 59.999996185302734Q9.0 50.999996185302734 22.0 50.999996185302734Q9.0 50.999996185302734 9.0 41.999996185302734L9.0 9.0Q9.0 0.0 0.0 0.0" stroke="#323232" stroke-width="2.0" stroke-dasharray="none" opacity="1.0" fill="none"/><path id="ProcessOnPath1063" d="M0.0 0.0L108.0 0.0L108.0 101.99999237060547L0.0 101.99999237060547Z" stroke="none" stroke-width="0.0" stroke-dasharray="none" opacity="1.0" fill="none"/><g id="ProcessOnG1064" transform="matrix(1.0,0.0,0.0,1.0,27.0,42.874996185302734)"><text id="ProcessOnText1065" fill="#000000" font-size="13" x="0.0" y="13.325" font-family="微软雅黑" font-weight="normal" font-style="normal" text-decoration="none" family="微软雅黑" text-anchor="start" size="13"> * 2</text></g></g><g id="ProcessOnG1066" transform="matrix(1.0,0.0,0.0,1.0,383.34999084472656,55.59999084472656)" opacity="1.0"><path id="ProcessOnPath1067" d="M0.0 0.0L76.5 0.0L76.5 31.0L0.0 31.0Z" stroke="#323232" stroke-width="2.0" stroke-dasharray="none" opacity="1.0" fill="#ffffff"/><g id="ProcessOnG1068" transform="matrix(1.0,0.0,0.0,1.0,10.0,7.375)"><text id="ProcessOnText1069" fill="#000000" font-size="13" x="27.25" y="13.325" font-family="微软雅黑" font-weight="normal" font-style="normal" text-decoration="none" family="微软雅黑" text-anchor="middle" size="13">Output</text></g></g><g id="ProcessOnG1070"><path id="ProcessOnPath1071" d="M421.59999084472656 119.59999084472656L421.59999084472656 103.09999084472656L421.59999084472656 103.09999084472656L421.59999084472656 101.83605882222635" stroke="#323232" stroke-width="2.0" stroke-dasharray="none" fill="none" marker-end="url(#ProcessOnMarker1072)"/></g><g id="ProcessOnG1074" transform="matrix(1.0,0.0,0.0,1.0,257.59999084472656,374.5999984741211)" opacity="1.0"><path id="ProcessOnPath1075" d="M0.0 0.0L112.0 0.0L112.0 20.0L0.0 20.0Z" stroke="#323232" stroke-width="2.0" stroke-dasharray="none" opacity="1.0" fill="#ffffff"/><g id="ProcessOnG1076" transform="matrix(1.0,0.0,0.0,1.0,10.0,1.875)"><text id="ProcessOnText1077" fill="#000000" font-size="13" x="45.0" y="13.325" font-family="微软雅黑" font-weight="normal" font-style="normal" text-decoration="none" family="微软雅黑" text-anchor="middle" size="13">LSTM</text></g></g><g id="ProcessOnG1078" transform="matrix(1.0,0.0,0.0,1.0,475.59999084472656,374.5999984741211)" opacity="1.0"><path id="ProcessOnPath1079" d="M0.0 0.0L112.0 0.0L112.0 20.0L0.0 20.0Z" stroke="#323232" stroke-width="2.0" stroke-dasharray="none" opacity="1.0" fill="#ffffff"/><g id="ProcessOnG1080" transform="matrix(1.0,0.0,0.0,1.0,10.0,1.875)"><text id="ProcessOnText1081" fill="#000000" font-size="13" x="45.0" y="13.325" font-family="微软雅黑" font-weight="normal" font-style="normal" text-decoration="none" family="微软雅黑" text-anchor="middle" size="13">LSTM</text></g></g><g id="ProcessOnG1082"><path id="ProcessOnPath1083" d="M531.5999908447266 374.5999984741211L531.5999908447266 354.0999984741211L531.5999908447266 354.0999984741211L531.5999908447266 348.83606645162087" stroke="#323232" stroke-width="2.0" stroke-dasharray="none" fill="none" marker-end="url(#ProcessOnMarker1084)"/></g><g id="ProcessOnG1086"><path id="ProcessOnPath1087" d="M313.59999084472656 374.5999984741211L313.59999084472656 352.5999984741211L313.59999084472656 352.5999984741211L313.59999084472656 345.83606645162087" stroke="#323232" stroke-width="2.0" stroke-dasharray="none" fill="none" marker-end="url(#ProcessOnMarker1088)"/></g><g id="ProcessOnG1090"><path id="ProcessOnPath1091" d="M354.59999084472656 440.5999984741211L335.59999084472656 440.5999984741211L335.59999084472656 440.5999984741211L331.83605882222633 440.5999984741211" stroke="#323232" stroke-width="2.0" stroke-dasharray="none" fill="none" marker-end="url(#ProcessOnMarker1092)"/></g><g id="ProcessOnG1094"><path id="ProcessOnPath1095" d="M531.5999908447266 490.5999984741211L531.5999908447266 442.5999984741211L531.5999908447266 442.5999984741211L531.5999908447266 409.83606645162087" stroke="#323232" stroke-width="2.0" stroke-dasharray="none" fill="none" marker-end="url(#ProcessOnMarker1096)"/></g><g id="ProcessOnG1098"><path id="ProcessOnPath1099" d="M313.59999084472656 490.5999984741211L313.59999084472656 442.5999984741211L313.59999084472656 442.5999984741211L313.59999084472656 409.83606645162087" stroke="#323232" stroke-width="2.0" stroke-dasharray="none" fill="none" marker-end="url(#ProcessOnMarker1100)"/></g><g id="ProcessOnG1102"><path id="ProcessOnPath1103" d="M504.59999084472656 440.5999984741211L518.5999908447266 440.5999984741211L518.5999908447266 440.5999984741211L519.5999908447266 440.5999984741211" stroke="#323232" stroke-width="2.0" stroke-dasharray="none" fill="none" marker-end="url(#ProcessOnMarker1104)"/></g></g></g></svg>